<?xml version="1.0" encoding="UTF-8" standalone="no"?>
<!-- Generator: Adobe Illustrator 19.0.0, SVG Export Plug-In . SVG Version: 6.00 Build 0)  -->

<svg
   version="1.1"
   id="Capa_1"
   x="0px"
   y="0px"
   viewBox="0 0 512.003 512.003"
   style="enable-background:new 0 0 512.003 512.003;"
   xml:space="preserve"
   sodipodi:docname="apple_light.svg"
   inkscape:version="1.2.2 (732a01da63, 2022-12-09)"
   xmlns:inkscape="http://www.inkscape.org/namespaces/inkscape"
   xmlns:sodipodi="http://sodipodi.sourceforge.net/DTD/sodipodi-0.dtd"
   xmlns="http://www.w3.org/2000/svg"
   xmlns:svg="http://www.w3.org/2000/svg"><defs
   id="defs82" /><sodipodi:namedview
   id="namedview80"
   pagecolor="#ffffff"
   bordercolor="#000000"
   borderopacity="0.25"
   inkscape:showpageshadow="2"
   inkscape:pageopacity="0.0"
   inkscape:pagecheckerboard="0"
   inkscape:deskcolor="#d1d1d1"
   showgrid="false"
   inkscape:zoom="1.1559471"
   inkscape:cx="293.26601"
   inkscape:cy="285.48019"
   inkscape:window-width="1920"
   inkscape:window-height="1017"
   inkscape:window-x="-8"
   inkscape:window-y="-8"
   inkscape:window-maximized="1"
   inkscape:current-layer="g47" />
<g
   id="g47">
	<path
   style="fill:#f2f2f2;fill-opacity:1"
   d="M 327.212,83.104 C 343.916,61.568 356.556,31.104 351.98,0 340.75578,0.77635316 328.75239,4.1877852 317.21582,9.5178593 300.6968,17.149901 285.1349,28.715714 274.188,42.112 c -16.96,20.64 -30.912,51.296 -25.472,81.088 29.824,0.928 60.64,-16.96 78.496,-40.096 z"
   id="path43"
   sodipodi:nodetypes="ccsccc" />
	<path
   style="fill:#f2f2f2;fill-opacity:1"
   d="M459.852,171.776c-26.208-32.864-63.04-51.936-97.824-51.936c-45.92,0-65.344,21.984-97.248,21.984   c-32.896,0-57.888-21.92-97.6-21.92c-39.008,0-80.544,23.84-106.88,64.608c-37.024,57.408-30.688,165.344,29.312,257.28   c21.472,32.896,50.144,69.888,87.648,70.208c33.376,0.32,42.784-21.408,88-21.632c45.216-0.256,53.792,21.92,87.104,21.568   c37.536-0.288,67.776-41.28,89.248-74.176c15.392-23.584,21.12-35.456,33.056-62.08   C387.852,342.624,373.932,219.168,459.852,171.776z"
   id="path45" />
</g>
<g
   id="g49">
</g>
<g
   id="g51">
</g>
<g
   id="g53">
</g>
<g
   id="g55">
</g>
<g
   id="g57">
</g>
<g
   id="g59">
</g>
<g
   id="g61">
</g>
<g
   id="g63">
</g>
<g
   id="g65">
</g>
<g
   id="g67">
</g>
<g
   id="g69">
</g>
<g
   id="g71">
</g>
<g
   id="g73">
</g>
<g
   id="g75">
</g>
<g
   id="g77">
</g>
</svg>
