<?xml version="1.0" encoding="UTF-8" standalone="no"?>
<svg
   viewBox="0 0 24 24"
   version="1.1"
   id="svg12"
   sodipodi:docname="github.svg"
   inkscape:version="1.2.2 (732a01da63, 2022-12-09)"
   xmlns:inkscape="http://www.inkscape.org/namespaces/inkscape"
   xmlns:sodipodi="http://sodipodi.sourceforge.net/DTD/sodipodi-0.dtd"
   xmlns="http://www.w3.org/2000/svg"
   xmlns:svg="http://www.w3.org/2000/svg">
  <defs
     id="defs16" />
  <sodipodi:namedview
     id="namedview14"
     pagecolor="#ffffff"
     bordercolor="#000000"
     borderopacity="0.25"
     inkscape:showpageshadow="2"
     inkscape:pageopacity="0.0"
     inkscape:pagecheckerboard="0"
     inkscape:deskcolor="#d1d1d1"
     showgrid="false"
     inkscape:zoom="34.875"
     inkscape:cx="12.014337"
     inkscape:cy="12"
     inkscape:window-width="1419"
     inkscape:window-height="1040"
     inkscape:window-x="2219"
     inkscape:window-y="2"
     inkscape:window-maximized="0"
     inkscape:current-layer="svg12" />
  <path
     d="m 12,1.2705736 c -6.0744444,0 -11,4.9255556 -11,11.0000004 0,4.864444 3.1533333,8.983333 7.5288889,10.437778 0.55,0.09778 0.7455555,-0.244445 0.7455555,-0.525556 0,-0.256666 -0.012222,-0.953333 -0.012222,-1.87 -3.0555555,0.66 -3.7033333,-1.478889 -3.7033333,-1.478889 C 5.0577778,17.562796 4.3366667,17.220574 4.3366667,17.220574 3.3344444,16.548352 4.41,16.548352 4.41,16.548352 c 1.1,0.07333 1.6866667,1.136666 1.6866667,1.136666 0.9777777,1.674445 2.5788889,1.197778 3.2022222,0.916667 0.097778,-0.708889 0.3788889,-1.197778 0.6966667,-1.466667 -2.4444445,-0.281111 -5.0111112,-1.222222 -5.0111112,-5.438888 0,-1.197778 0.4277778,-2.1877786 1.1366667,-2.9577786 -0.11,-0.2811111 -0.4888889,-1.3933334 0.11,-2.9088889 0,0 0.9288889,-0.2933333 3.0188889,1.1244444 0.88,-0.2444444 1.821111,-0.3666666 2.75,-0.3666666 0.928889,0 1.87,0.1222222 2.75,0.3666666 2.102222,-1.43 3.018889,-1.1244444 3.018889,-1.1244444 0.598889,1.5155555 0.22,2.6277778 0.11,2.9088889 0.708889,0.77 1.124444,1.7477786 1.124444,2.9577786 0,4.228888 -2.566666,5.157777 -5.023333,5.426666 0.391111,0.342222 0.745556,1.014445 0.745556,2.041111 0,1.466667 -0.01222,2.652223 -0.01222,3.018889 0,0.293334 0.195556,0.635556 0.757778,0.525556 C 19.846667,21.253907 23,17.135018 23,12.270574 23,6.1961292 18.074444,1.2705736 12,1.2705736 Z"
     id="path10"
     style="stroke-width:1.22222" />
</svg>
