<?xml version="1.0" encoding="UTF-8" standalone="no"?>
<!DOCTYPE svg PUBLIC "-//W3C//DTD SVG 1.1//EN" "http://www.w3.org/Graphics/SVG/1.1/DTD/svg11.dtd">
<svg version="1.1" xmlns="http://www.w3.org/2000/svg" xmlns:xlink="http://www.w3.org/1999/xlink" preserveAspectRatio="xMidYMid meet" viewBox="0 0 640 640" width="640" height="640"><defs><path d="M427.89 114.6C425.53 63.99 383.81 23.06 333.17 21.59C277.85 19.99 232.52 64.35 232.52 119.29C232.52 127.54 233.54 135.53 235.45 143.17C246.61 187.58 235.61 234.53 204.22 267.85C172.71 301.3 152.77 346.21 152.77 395.68C152.77 509.62 197.11 564.53 260.57 581.83C275.15 575.27 296.32 571.16 319.89 571.16C342.3 571.16 362.54 574.89 377.02 580.9C455.3 565.2 492.44 527.07 518.34 439.04C539.04 368.73 506.95 291.35 468.38 256.72C434.22 226.06 419.87 179.66 426.86 134.3C427.85 127.92 428.21 121.34 427.89 114.6Z" id="b44jNiDVSw"></path><path d="M427.89 114.6C425.53 63.99 383.81 23.06 333.17 21.59C277.85 19.99 232.52 64.35 232.52 119.29C232.52 127.54 233.54 135.53 235.45 143.17C246.61 187.58 235.61 234.53 204.22 267.85C172.71 301.3 152.77 346.21 152.77 395.68C152.77 509.62 197.11 564.53 260.57 581.83C275.15 575.27 296.32 571.16 319.89 571.16C342.3 571.16 362.54 574.89 377.02 580.9C455.3 565.2 492.44 527.07 518.34 439.04C539.04 368.73 506.95 291.35 468.38 256.72C434.22 226.06 419.87 179.66 426.86 134.3C427.85 127.92 428.21 121.34 427.89 114.6Z" id="d341sn9tNt"></path><path d="M427.89 114.6C425.53 63.99 383.81 23.06 333.17 21.59C328.67 21.46 324.24 21.67 319.89 22.13C319.89 77.03 319.89 516.25 319.89 571.16C345.97 571.16 369.13 576.21 383.68 584.02C457.74 572.47 493.16 524.6 518.34 439.04C539.04 368.73 506.95 291.35 468.38 256.72C434.22 226.06 419.87 179.66 426.86 134.3C427.85 127.92 428.21 121.34 427.89 114.6Z" id="c2uSYnskU"></path><path d="M427.89 114.6C425.53 63.99 383.81 23.06 333.17 21.59C328.67 21.46 324.24 21.67 319.89 22.13C319.89 77.03 319.89 516.25 319.89 571.16C345.97 571.16 369.13 576.21 383.68 584.02C457.74 572.47 493.16 524.6 518.34 439.04C539.04 368.73 506.95 291.35 468.38 256.72C434.22 226.06 419.87 179.66 426.86 134.3C427.85 127.92 428.21 121.34 427.89 114.6Z" id="b165DgLRU"></path><path d="M460.07 418.78C460.07 492.19 400.55 551.71 327.14 551.71C253.72 551.71 194.2 492.19 194.2 418.78C194.2 344.5 253.72 172.47 327.14 172.47C400.55 172.47 460.07 345.36 460.07 418.78Z" id="bfAmAPtkw"></path><path d="M460.07 418.78C460.07 492.19 400.55 551.71 327.14 551.71C253.72 551.71 194.2 492.19 194.2 418.78C194.2 344.5 253.72 172.47 327.14 172.47C400.55 172.47 460.07 345.36 460.07 418.78Z" id="f1A8EkR33a"></path><path d="M319.89 551.5C322.29 551.63 324.7 551.71 327.14 551.71C400.55 551.71 460.07 492.19 460.07 418.78C460.07 345.36 400.55 172.47 327.14 172.47C324.7 172.47 322.29 172.66 319.89 173.03C319.89 210.88 319.89 513.66 319.89 551.5Z" id="b1cRZuTmKB"></path><path d="M319.89 551.5C322.29 551.63 324.7 551.71 327.14 551.71C400.55 551.71 460.07 492.19 460.07 418.78C460.07 345.36 400.55 172.47 327.14 172.47C324.7 172.47 322.29 172.66 319.89 173.03C319.89 210.88 319.89 513.66 319.89 551.5Z" id="d1fsxiapM9"></path><path d="M278.12 164.65C266.02 164.65 256.21 151.35 256.21 134.94C256.21 118.52 266.02 105.21 278.12 105.21C290.2 105.21 300 118.52 300 134.94C300 151.35 290.2 164.65 278.12 164.65Z" id="a2RWpLFSRx"></path><path d="M278.12 164.65C266.02 164.65 256.21 151.35 256.21 134.94C256.21 118.52 266.02 105.21 278.12 105.21C290.2 105.21 300 118.52 300 134.94C300 151.35 290.2 164.65 278.12 164.65Z" id="jk6nlI2I8"></path><path d="M278.12 160.95C272.11 160.95 267.25 152.32 267.25 141.69C267.25 131.05 272.11 122.42 278.12 122.42C284.11 122.42 288.97 131.05 288.97 141.69C288.97 152.32 284.11 160.95 278.12 160.95Z" id="c11GxAIqEa"></path><path d="M278.12 160.95C272.11 160.95 267.25 152.32 267.25 141.69C267.25 131.05 272.11 122.42 278.12 122.42C284.11 122.42 288.97 131.05 288.97 141.69C288.97 152.32 284.11 160.95 278.12 160.95Z" id="c1I1F4yYRa"></path><path d="M356.06 164.65C343.97 164.65 334.18 151.35 334.18 134.94C334.18 118.52 343.97 105.21 356.06 105.21C368.16 105.21 377.95 118.52 377.95 134.94C377.95 151.35 368.16 164.65 356.06 164.65Z" id="b1FSKcBIng"></path><path d="M356.06 164.65C343.97 164.65 334.18 151.35 334.18 134.94C334.18 118.52 343.97 105.21 356.06 105.21C368.16 105.21 377.95 118.52 377.95 134.94C377.95 151.35 368.16 164.65 356.06 164.65Z" id="a39bkagl8"></path><path d="M356.06 160.95C350.07 160.95 345.21 152.32 345.21 141.69C345.21 131.05 350.07 122.42 356.06 122.42C362.05 122.42 366.92 131.05 366.92 141.69C366.92 152.32 362.05 160.95 356.06 160.95Z" id="e3aiXTZm5I"></path><path d="M356.06 160.95C350.07 160.95 345.21 152.32 345.21 141.69C345.21 131.05 350.07 122.42 356.06 122.42C362.05 122.42 366.92 131.05 366.92 141.69C366.92 152.32 362.05 160.95 356.06 160.95Z" id="a6rzqwZ3j0"></path><path d="M252.86 185.76C265.51 168.56 293.12 140.8 315.8 140.8C332.13 140.8 380.53 175.4 385.4 185.76C392.54 201 338.08 229.94 319.13 229.94C295.47 229.94 246.07 194.98 252.86 185.76Z" id="a3gDcuUD0H"></path><path d="M252.86 185.76C265.51 168.56 293.12 140.8 315.8 140.8C332.13 140.8 380.53 175.4 385.4 185.76C392.54 201 338.08 229.94 319.13 229.94C295.47 229.94 246.07 194.98 252.86 185.76Z" id="a1lABLVX83"></path><path d="M319.89 229.9C339.48 229.18 392.45 200.82 385.38 185.76C380.89 176.16 339 145.75 319.89 141.35C319.89 150.21 319.89 221.05 319.89 229.9Z" id="a4oJPhUwf"></path><path d="M319.89 229.9C339.48 229.18 392.45 200.82 385.38 185.76C380.89 176.16 339 145.75 319.89 141.35C319.89 150.21 319.89 221.05 319.89 229.9Z" id="dXK9jFHlf"></path><path d="M536.38 492.63C536.59 494.56 536.88 496.5 537.24 498.44C539.6 511.02 544.95 522.3 552.41 531.65C563.6 545.7 555.53 566.66 537.87 570.01C523.94 572.64 412.45 593.77 398.5 596.42C368.15 602.17 345.32 569.26 361.33 542.83C369.03 530.76 430.59 434.24 438.28 422.18C445.49 410.88 462.11 411.8 468.27 423.7C477.93 442.37 492.31 460 510.85 464.07C524.52 467.09 534.86 478.71 536.38 492.63Z" id="ep1VyMn1C"></path><path d="M536.38 492.63C536.59 494.56 536.88 496.5 537.24 498.44C539.6 511.02 544.95 522.3 552.41 531.65C563.6 545.7 555.53 566.66 537.87 570.01C523.94 572.64 412.45 593.77 398.5 596.42C368.15 602.17 345.32 569.26 361.33 542.83C369.03 530.76 430.59 434.24 438.28 422.18C445.49 410.88 462.11 411.8 468.27 423.7C477.93 442.37 492.31 460 510.85 464.07C524.52 467.09 534.86 478.71 536.38 492.63Z" id="bW0UKqMBR"></path><path d="M265.52 185.32C285.6 204.43 305.33 213.14 324.11 211.2C350.05 208.52 365.66 186.32 365.82 186.1C366.63 186.65 373.1 191.12 373.9 191.68C373.17 192.74 355.51 217.84 325.12 220.98C323.05 221.19 320.98 221.29 318.89 221.29C299.09 221.29 278.89 211.62 258.74 192.45C259.43 191.73 264.85 186.03 265.52 185.32Z" id="bjkoZDaaF"></path><path d="M265.52 185.32C285.6 204.43 305.33 213.14 324.11 211.2C350.05 208.52 365.66 186.32 365.82 186.1C366.63 186.65 373.1 191.12 373.9 191.68C373.17 192.74 355.51 217.84 325.12 220.98C323.05 221.19 320.98 221.29 318.89 221.29C299.09 221.29 278.89 211.62 258.74 192.45C259.43 191.73 264.85 186.03 265.52 185.32Z" id="a1XSdMC7s0"></path><path d="M319.89 221.26C321.63 221.24 323.37 221.16 325.12 220.98C355.51 217.84 373.17 192.74 373.9 191.68C373.09 191.12 366.62 186.65 365.82 186.1C365.66 186.32 350.05 208.52 324.11 211.2C322.71 211.34 321.3 211.41 319.89 211.43C319.89 212.42 319.89 220.28 319.89 221.26Z" id="a1JGgACk8m"></path><path d="M319.89 221.26C321.63 221.24 323.37 221.16 325.12 220.98C355.51 217.84 373.17 192.74 373.9 191.68C373.09 191.12 366.62 186.65 365.82 186.1C365.66 186.32 350.05 208.52 324.11 211.2C322.71 211.34 321.3 211.41 319.89 211.43C319.89 212.42 319.89 220.28 319.89 221.26Z" id="ahHUabwYI"></path><path d="M442.58 445.19C442.58 469.84 462.57 489.83 487.23 489.83C511.89 489.83 531.88 469.84 531.88 445.19C531.88 420.52 511.89 400.53 487.23 400.53C462.57 400.53 442.58 420.52 442.58 445.19Z" id="c9feE4N3j"></path><path d="M442.58 445.19C442.58 469.84 462.57 489.83 487.23 489.83C511.89 489.83 531.88 469.84 531.88 445.19C531.88 420.52 511.89 400.53 487.23 400.53C462.57 400.53 442.58 420.52 442.58 445.19Z" id="b1dZswYRXK"></path><path d="M205.2 489.83C159.33 460.98 185.54 396.26 185.54 396.26C201.88 410.52 233.25 454.43 267.25 467.53C301.24 480.64 251.08 518.69 205.2 489.83Z" id="bkxsUlgq8"></path><path d="M205.2 489.83C159.33 460.98 185.54 396.26 185.54 396.26C201.88 410.52 233.25 454.43 267.25 467.53C301.24 480.64 251.08 518.69 205.2 489.83Z" id="a5f4QOifnM"></path><path d="M91.8 492.63C91.58 494.56 91.29 496.5 90.93 498.44C88.57 511.02 83.23 522.3 75.77 531.65C64.57 545.7 72.65 566.66 90.29 570.01C104.24 572.64 215.73 593.77 229.67 596.42C260.03 602.17 282.86 569.26 266.84 542.83C259.15 530.76 197.59 434.24 189.89 422.18C182.68 410.88 166.06 411.8 159.9 423.7C150.24 442.37 135.86 460 117.33 464.07C103.66 467.09 93.32 478.71 91.8 492.63Z" id="nmHiC55DZ"></path><path d="M91.8 492.63C91.58 494.56 91.29 496.5 90.93 498.44C88.57 511.02 83.23 522.3 75.77 531.65C64.57 545.7 72.65 566.66 90.29 570.01C104.24 572.64 215.73 593.77 229.67 596.42C260.03 602.17 282.86 569.26 266.84 542.83C259.15 530.76 197.59 434.24 189.89 422.18C182.68 410.88 166.06 411.8 159.9 423.7C150.24 442.37 135.86 460 117.33 464.07C103.66 467.09 93.32 478.71 91.8 492.63Z" id="j3VX4aTgJm"></path></defs><g><g><g><use xlink:href="#b44jNiDVSw" opacity="1" fill="#333333" fill-opacity="1"></use><g><use xlink:href="#b44jNiDVSw" opacity="1" fill-opacity="0" stroke="#000000" stroke-width="1" stroke-opacity="0"></use></g></g><g><use xlink:href="#d341sn9tNt" opacity="1" fill="#000000" fill-opacity="0"></use><g><use xlink:href="#d341sn9tNt" opacity="1" fill-opacity="0" stroke="#000000" stroke-width="1" stroke-opacity="0"></use></g></g><g><use xlink:href="#c2uSYnskU" opacity="1" fill="#000000" fill-opacity="1"></use><g><use xlink:href="#c2uSYnskU" opacity="1" fill-opacity="0" stroke="#000000" stroke-width="1" stroke-opacity="0"></use></g></g><g><use xlink:href="#b165DgLRU" opacity="1" fill="#000000" fill-opacity="0"></use><g><use xlink:href="#b165DgLRU" opacity="1" fill-opacity="0" stroke="#000000" stroke-width="1" stroke-opacity="0"></use></g></g><g><use xlink:href="#bfAmAPtkw" opacity="1" fill="#ffffff" fill-opacity="1"></use><g><use xlink:href="#bfAmAPtkw" opacity="1" fill-opacity="0" stroke="#000000" stroke-width="1" stroke-opacity="0"></use></g></g><g><use xlink:href="#f1A8EkR33a" opacity="1" fill="#000000" fill-opacity="0"></use><g><use xlink:href="#f1A8EkR33a" opacity="1" fill-opacity="0" stroke="#000000" stroke-width="1" stroke-opacity="0"></use></g></g><g><use xlink:href="#b1cRZuTmKB" opacity="1" fill="#c0c2c1" fill-opacity="1"></use><g><use xlink:href="#b1cRZuTmKB" opacity="1" fill-opacity="0" stroke="#000000" stroke-width="1" stroke-opacity="0"></use></g></g><g><use xlink:href="#d1fsxiapM9" opacity="1" fill="#000000" fill-opacity="0"></use><g><use xlink:href="#d1fsxiapM9" opacity="1" fill-opacity="0" stroke="#000000" stroke-width="1" stroke-opacity="0"></use></g></g><g><use xlink:href="#a2RWpLFSRx" opacity="1" fill="#e6e6e6" fill-opacity="1"></use><g><use xlink:href="#a2RWpLFSRx" opacity="1" fill-opacity="0" stroke="#000000" stroke-width="1" stroke-opacity="0"></use></g></g><g><use xlink:href="#jk6nlI2I8" opacity="1" fill="#000000" fill-opacity="0"></use><g><use xlink:href="#jk6nlI2I8" opacity="1" fill-opacity="0" stroke="#000000" stroke-width="1" stroke-opacity="0"></use></g></g><g><use xlink:href="#c11GxAIqEa" opacity="1" fill="#000100" fill-opacity="1"></use><g><use xlink:href="#c11GxAIqEa" opacity="1" fill-opacity="0" stroke="#000000" stroke-width="1" stroke-opacity="0"></use></g></g><g><use xlink:href="#c1I1F4yYRa" opacity="1" fill="#000000" fill-opacity="0"></use><g><use xlink:href="#c1I1F4yYRa" opacity="1" fill-opacity="0" stroke="#000000" stroke-width="1" stroke-opacity="0"></use></g></g><g><use xlink:href="#b1FSKcBIng" opacity="1" fill="#e6e6e6" fill-opacity="1"></use><g><use xlink:href="#b1FSKcBIng" opacity="1" fill-opacity="0" stroke="#000000" stroke-width="1" stroke-opacity="0"></use></g></g><g><use xlink:href="#a39bkagl8" opacity="1" fill="#000000" fill-opacity="0"></use><g><use xlink:href="#a39bkagl8" opacity="1" fill-opacity="0" stroke="#000000" stroke-width="1" stroke-opacity="0"></use></g></g><g><use xlink:href="#e3aiXTZm5I" opacity="1" fill="#000100" fill-opacity="1"></use><g><use xlink:href="#e3aiXTZm5I" opacity="1" fill-opacity="0" stroke="#000000" stroke-width="1" stroke-opacity="0"></use></g></g><g><use xlink:href="#a6rzqwZ3j0" opacity="1" fill="#000000" fill-opacity="0"></use><g><use xlink:href="#a6rzqwZ3j0" opacity="1" fill-opacity="0" stroke="#000000" stroke-width="1" stroke-opacity="0"></use></g></g><g><use xlink:href="#a3gDcuUD0H" opacity="1" fill="#fe9a0f" fill-opacity="1"></use><g><use xlink:href="#a3gDcuUD0H" opacity="1" fill-opacity="0" stroke="#000000" stroke-width="1" stroke-opacity="0"></use></g></g><g><use xlink:href="#a1lABLVX83" opacity="1" fill="#000000" fill-opacity="0"></use><g><use xlink:href="#a1lABLVX83" opacity="1" fill-opacity="0" stroke="#000000" stroke-width="1" stroke-opacity="0"></use></g></g><g><use xlink:href="#a4oJPhUwf" opacity="1" fill="#e2810c" fill-opacity="1"></use><g><use xlink:href="#a4oJPhUwf" opacity="1" fill-opacity="0" stroke="#000000" stroke-width="1" stroke-opacity="0"></use></g></g><g><use xlink:href="#dXK9jFHlf" opacity="1" fill="#000000" fill-opacity="0"></use><g><use xlink:href="#dXK9jFHlf" opacity="1" fill-opacity="0" stroke="#000000" stroke-width="1" stroke-opacity="0"></use></g></g><g><use xlink:href="#ep1VyMn1C" opacity="1" fill="#dd7f10" fill-opacity="1"></use><g><use xlink:href="#ep1VyMn1C" opacity="1" fill-opacity="0" stroke="#000000" stroke-width="1" stroke-opacity="0"></use></g></g><g><use xlink:href="#bW0UKqMBR" opacity="1" fill="#000000" fill-opacity="0"></use><g><use xlink:href="#bW0UKqMBR" opacity="1" fill-opacity="0" stroke="#000000" stroke-width="1" stroke-opacity="0"></use></g></g><g><use xlink:href="#bjkoZDaaF" opacity="1" fill="#ae4e32" fill-opacity="1"></use><g><use xlink:href="#bjkoZDaaF" opacity="1" fill-opacity="0" stroke="#000000" stroke-width="1" stroke-opacity="0"></use></g></g><g><use xlink:href="#a1XSdMC7s0" opacity="1" fill="#000000" fill-opacity="0"></use><g><use xlink:href="#a1XSdMC7s0" opacity="1" fill-opacity="0" stroke="#000000" stroke-width="1" stroke-opacity="0"></use></g></g><g><use xlink:href="#a1JGgACk8m" opacity="1" fill="#9e402b" fill-opacity="1"></use><g><use xlink:href="#a1JGgACk8m" opacity="1" fill-opacity="0" stroke="#000000" stroke-width="1" stroke-opacity="0"></use></g></g><g><use xlink:href="#ahHUabwYI" opacity="1" fill="#000000" fill-opacity="0"></use><g><use xlink:href="#ahHUabwYI" opacity="1" fill-opacity="0" stroke="#000000" stroke-width="1" stroke-opacity="0"></use></g></g><g><use xlink:href="#c9feE4N3j" opacity="1" fill="#000000" fill-opacity="1"></use><g><use xlink:href="#c9feE4N3j" opacity="1" fill-opacity="0" stroke="#000000" stroke-width="1" stroke-opacity="0"></use></g></g><g><use xlink:href="#b1dZswYRXK" opacity="1" fill="#000000" fill-opacity="0"></use><g><use xlink:href="#b1dZswYRXK" opacity="1" fill-opacity="0" stroke="#000000" stroke-width="1" stroke-opacity="0"></use></g></g><g><use xlink:href="#bkxsUlgq8" opacity="1" fill="#333333" fill-opacity="1"></use><g><use xlink:href="#bkxsUlgq8" opacity="1" fill-opacity="0" stroke="#000000" stroke-width="1" stroke-opacity="0"></use></g></g><g><use xlink:href="#a5f4QOifnM" opacity="1" fill="#000000" fill-opacity="0"></use><g><use xlink:href="#a5f4QOifnM" opacity="1" fill-opacity="0" stroke="#000000" stroke-width="1" stroke-opacity="0"></use></g></g><g><use xlink:href="#nmHiC55DZ" opacity="1" fill="#fe9b0e" fill-opacity="1"></use><g><use xlink:href="#nmHiC55DZ" opacity="1" fill-opacity="0" stroke="#000000" stroke-width="1" stroke-opacity="0"></use></g></g><g><use xlink:href="#j3VX4aTgJm" opacity="1" fill="#000000" fill-opacity="0"></use><g><use xlink:href="#j3VX4aTgJm" opacity="1" fill-opacity="0" stroke="#000000" stroke-width="1" stroke-opacity="0"></use></g></g></g></g></svg>